<?xml version="1.0" encoding="UTF-8" standalone="no"?><!DOCTYPE svg PUBLIC "-//W3C//DTD SVG 1.1//EN" "http://www.w3.org/Graphics/SVG/1.1/DTD/svg11.dtd"><svg width="100%" height="100%" viewBox="0 0 683 683" version="1.1" xmlns="http://www.w3.org/2000/svg" xmlns:xlink="http://www.w3.org/1999/xlink" xml:space="preserve" xmlns:serif="http://www.serif.com/" style="fill-rule:evenodd;clip-rule:evenodd;stroke-linejoin:round;"><path d="M618.667,246.667c-0,-41.946 -34.055,-76 -76,-76l-296,-0c-41.946,-0 -76,34.054 -76,76l-0,296c-0,41.945 34.054,76 76,76l296,-0c41.945,-0 76,-34.055 76,-76l-0,-296Z" style="fill:none;stroke:#00c830;stroke-width:42.67px;"/><path d="M511.333,170.667l0.667,-32c-0.116,-40.917 -33.75,-74.551 -74.667,-74.667l-288,0c-46.76,0.138 -85.195,38.573 -85.333,85.333l0,288c0.116,40.917 33.75,74.551 74.667,74.667l32,0" style="fill:none;fill-rule:nonzero;stroke:#00c830;stroke-width:42.67px;stroke-linecap:round;"/></svg>