<?xml version="1.0" encoding="UTF-8" standalone="no"?><!DOCTYPE svg PUBLIC "-//W3C//DTD SVG 1.1//EN" "http://www.w3.org/Graphics/SVG/1.1/DTD/svg11.dtd"><svg width="100%" height="100%" viewBox="0 0 683 683" version="1.1" xmlns="http://www.w3.org/2000/svg" xmlns:xlink="http://www.w3.org/1999/xlink" xml:space="preserve" xmlns:serif="http://www.serif.com/" style="fill-rule:evenodd;clip-rule:evenodd;stroke-linejoin:round;"><path d="M512,490.667l32,-0c29.225,-0.088 53.246,-24.109 53.333,-53.334l0,-213.333c-0.087,-29.225 -24.108,-53.246 -53.333,-53.333l-405.333,-0c-29.225,0.087 -53.246,24.108 -53.334,53.333l0,213.333c0.088,29.225 24.109,53.246 53.334,53.334l32,-0" style="fill:none;fill-rule:nonzero;stroke:#00c830;stroke-width:42.67px;"/><path d="M512,352.427c0,-17.897 -14.53,-32.427 -32.427,-32.427l-276.48,0c-17.896,0 -32.426,14.53 -32.426,32.427l-0,212.48c-0,17.896 14.53,32.426 32.426,32.426l276.48,0c17.897,0 32.427,-14.53 32.427,-32.426l0,-212.48Z" style="fill:none;stroke:#00c830;stroke-width:42.67px;"/><path d="M512,170.667l0,-32c-0.087,-29.225 -24.109,-53.246 -53.333,-53.334l-234.667,0c-29.225,0.088 -53.246,24.109 -53.333,53.334l-0,32" style="fill:none;fill-rule:nonzero;stroke:#00c830;stroke-width:42.67px;"/><circle cx="522.667" cy="245.333" r="32" style="fill:#00c830;"/></svg>