<?xml version="1.0" encoding="UTF-8" standalone="no"?><!DOCTYPE svg PUBLIC "-//W3C//DTD SVG 1.1//EN" "http://www.w3.org/Graphics/SVG/1.1/DTD/svg11.dtd"><svg width="100%" height="100%" viewBox="0 0 683 683" version="1.1" xmlns="http://www.w3.org/2000/svg" xmlns:xlink="http://www.w3.org/1999/xlink" xml:space="preserve" xmlns:serif="http://www.serif.com/" style="fill-rule:evenodd;clip-rule:evenodd;stroke-linecap:round;stroke-linejoin:round;"><path d="M507.907,76.493c-8,-7.998 -18.861,-12.495 -30.174,-12.493l-352.106,0c-0.005,-0 -0.009,-0 -0.014,-0c-33.8,-0 -61.613,27.813 -61.613,61.613c-0,0.005 -0,0.009 -0,0.014l-0,431.413c-0,0.004 -0,0.009 -0,0.013c-0,33.8 27.813,61.614 61.613,61.614c0.005,-0 0.009,-0 0.014,-0l431.413,-0c33.769,-0.102 61.525,-27.858 61.627,-61.627l-0,-352.107c0.001,-11.312 -4.496,-22.173 -12.494,-30.173l-98.266,-98.267Zm-166.574,478.174c-46.812,-0 -85.333,-38.521 -85.333,-85.334c0,-46.812 38.521,-85.333 85.333,-85.333c46.813,-0 85.334,38.521 85.334,85.333c-0,0.036 -0,0.071 -0,0.107c-0,46.754 -38.473,85.227 -85.227,85.227c-0.036,-0 -0.071,-0 -0.107,-0Zm64,-298.667l-256,-0c-11.703,-0 -21.333,-9.63 -21.333,-21.333l0,-85.334c0,-11.703 9.63,-21.333 21.333,-21.333l256,-0c11.703,-0 21.334,9.63 21.334,21.333l-0,85.334c-0,11.703 -9.631,21.333 -21.334,21.333Z" style="fill:none;fill-rule:nonzero;stroke:#00c830;stroke-width:42.67px;"/></svg>